<svg xmlns="http://www.w3.org/2000/svg" viewBox="104 485 300 300" role="img" aria-label="Arcentra">
<path d="M0 0 C1.02537872 -0.00832352 2.05075745 -0.01664703 3.10720825 -0.02522278 C6.48532958 -0.04924837 9.86325746 -0.05808657 13.24145508 -0.06469727 C15.60166987 -0.07367031 17.96188411 -0.08279227 20.32209778 -0.09205627 C25.2673175 -0.10852939 30.21246966 -0.11624316 35.15771484 -0.11914062 C41.47121481 -0.12451787 47.78407302 -0.16217904 54.09739208 -0.20788479 C58.97296931 -0.23773961 63.84839368 -0.24486605 68.72405434 -0.24586678 C71.05030565 -0.25005348 73.37655808 -0.2624249 75.70271873 -0.28338432 C93.12334613 -0.42783818 105.62746142 0.84328444 118.69848633 13.33764648 C123.64400697 18.50135186 126.40612548 23.52267949 128.57348633 30.30639648 C128.90348633 31.29639648 129.23348633 32.28639648 129.57348633 33.30639648 C131.18301191 47.02884653 127.61422668 57.02228641 119.55395508 68.07592773 C113.01757713 75.43741059 102.65377235 80.60194359 92.8874588 81.57364273 C86.1757802 81.91913928 79.46308914 81.85645406 72.74502945 81.7757206 C68.89396865 81.73146139 65.04414173 81.72144116 61.19284058 81.72050476 C50.94570903 81.7123171 40.69910336 81.65320702 30.45233905 81.56757087 C23.04681762 81.50596952 15.64256028 81.48090314 8.23672104 81.48988914 C5.68579334 81.48477032 3.13484798 81.46433546 0.5841713 81.42818642 C-2.9774297 81.37793847 -6.53602769 81.37656099 -10.09790039 81.38574219 C-11.14634628 81.35847549 -12.19479218 81.3312088 -13.27500916 81.30311584 C-18.86266752 81.35703689 -18.86266752 81.35703689 -23.57312393 84.07884789 C-25.45451686 86.18704303 -25.45451686 86.18704303 -26.99446297 88.39345074 C-29.28353084 91.45120745 -31.78783965 92.63018273 -35.42651367 93.30639648 C-42.19406326 94.09825693 -48.49228675 94.48501322 -54.48901367 90.86889648 C-59.9882546 86.44693223 -62.97753585 81.87817542 -63.86401367 74.82592773 C-64.03830581 69.6570766 -63.98684166 65.56153117 -61.86401367 60.80639648 C-55.99411094 54.78598343 -51.07520931 50.09078027 -42.23901367 49.86889648 C-35.42506955 50.00683058 -29.72861582 52.26459518 -24.69213867 56.90405273 C-21.42651367 60.63750603 -21.42651367 60.63750603 -21.42651367 63.30639648 C-6.71804835 63.26915588 7.99017946 63.20918691 22.6984396 63.12249374 C29.52845569 63.0827607 36.35835752 63.05033927 43.18847656 63.03540039 C49.78275215 63.02095649 56.37670957 62.98577975 62.97084236 62.93808746 C65.48372375 62.92327661 67.99665572 62.91535564 70.50958061 62.91451263 C74.03574039 62.91214049 77.56092322 62.88503824 81.08691406 62.85229492 C82.12054077 62.85732529 83.15416748 62.86235565 84.21911621 62.86753845 C92.14502332 62.75404186 98.11293019 60.93942833 104.44848633 56.11889648 C108.60073066 50.62327899 110.19657579 44.36749493 109.92114258 37.50561523 C109.06030955 32.0601209 106.6111468 28.34405695 102.76098633 24.49389648 C95.73161453 19.6698178 90.42742447 18.86782069 82.06762695 18.93408203 C81.03421677 18.93043137 80.00080658 18.9267807 78.93608093 18.92301941 C75.5337968 18.91494019 72.13199286 18.92850261 68.72973633 18.94311523 C66.35754395 18.94363415 63.98535113 18.94311522 61.61315918 18.94160461 C56.64690716 18.94169422 51.68081786 18.95210023 46.71459961 18.97021484 C40.35597152 18.99290134 33.99758107 18.99344475 27.63892365 18.9866972 C22.74210507 18.98335213 17.84534044 18.98999749 12.9485321 18.99982643 C10.60422549 19.00366942 8.25991286 19.00483039 5.91560364 19.00324059 C2.63673514 19.0028688 -0.64183128 19.01552222 -3.9206543 19.03173828 C-4.88501907 19.02926086 -5.84938385 19.02678345 -6.8429718 19.02423096 C-12.09291222 19.06556676 -16.45647789 19.58847171 -21.42651367 21.30639648 C-21.53505351 19.07831489 -21.61234675 16.84869717 -21.67651367 14.61889648 C-21.72291992 13.3775293 -21.76932617 12.13616211 -21.81713867 10.85717773 C-21.35122782 6.62204807 -20.58736146 5.13586507 -17.42651367 2.30639648 C-11.59858242 0.1375199 -6.17392718 0.00429023 0 0 Z " fill="#050505" transform="translate(177.426513671875,549.693603515625)"/>
<path d="M0 0 C8.38033606 4.95151677 14.95784884 12.39486816 21.83349609 19.18823242 C23.52884687 20.85540878 25.23399526 22.51267975 26.94873047 24.15991211 C29.43340531 26.54719074 31.8870702 28.96278602 34.3359375 31.38671875 C35.48888809 32.47940315 35.48888809 32.47940315 36.66513062 33.59416199 C39.98715228 36.94353923 42.49233538 39.65099963 42.98974609 44.46826172 C42.40045654 50.56463664 38.05838826 54.09844071 33.828125 58.12109375 C32.99416199 58.94706558 32.16019897 59.77303741 31.30096436 60.6240387 C28.63769756 63.25028199 25.9442443 65.84308707 23.25 68.4375 C21.45118087 70.20831375 19.65428243 71.98108083 17.859375 73.75585938 C16.14231112 75.44182311 14.42361508 77.12612652 12.703125 78.80859375 C11.89256653 79.6012413 11.08200806 80.39388885 10.24688721 81.21055603 C9.10615753 82.30793846 9.10615753 82.30793846 7.94238281 83.42749023 C7.27619934 84.07096909 6.61001587 84.71444794 5.92364502 85.37742615 C2.07557696 88.6232301 -0.93933725 89.38521663 -6.03125 89.26171875 C-8.88928073 88.88178212 -10.75817216 87.7662886 -13 86 C-14.44929112 83.10141775 -14.37616754 81.21935093 -14 78 C-12.37178265 75.84649051 -10.90927016 74.20388556 -8.96875 72.3828125 C-8.45824097 71.88079315 -7.94773193 71.3787738 -7.42175293 70.86154175 C-5.79474941 69.26801195 -4.14811878 67.69665222 -2.5 66.125 C-1.39056346 65.04567073 -0.28247361 63.96495534 0.82421875 62.8828125 C3.53413951 60.2388952 6.26185458 57.61466291 9 55 C8.02301147 54.99761165 7.04602295 54.99522329 6.03942871 54.99276257 C-17.7389269 54.93395357 -41.5171813 54.85806201 -65.29542542 54.76428509 C-76.79443444 54.71933015 -88.29341252 54.67991472 -99.79248047 54.65356445 C-109.81571141 54.630582 -119.83884437 54.59718109 -129.8619976 54.55129844 C-135.1685926 54.52736968 -140.47509058 54.50863858 -145.78173828 54.50238609 C-150.77875984 54.49633375 -155.7755332 54.47632819 -160.77246284 54.44572449 C-162.6041752 54.43694672 -164.43591998 54.43322114 -166.26765251 54.43499184 C-168.77434195 54.43664959 -171.28027923 54.41990303 -173.78686523 54.39872742 C-174.86666782 54.40599878 -174.86666782 54.40599878 -175.96828461 54.41341704 C-181.82581414 54.33210856 -187.39478868 53.12239224 -192.0234375 49.3515625 C-197.14042534 42.81483237 -198.32422169 38.26765307 -198 30 C-196.9790625 30.433125 -196.9790625 30.433125 -195.9375 30.875 C-189.80504367 33.2236003 -184.30920709 34.29222089 -177.75526428 34.24050903 C-176.9529906 34.24221788 -176.15071691 34.24392673 -175.32413191 34.24568737 C-172.65097265 34.24896686 -169.97806755 34.23800411 -167.30493164 34.22705078 C-165.38274135 34.22648633 -163.46055063 34.22680388 -161.5383606 34.22793579 C-156.33022561 34.22850899 -151.12218297 34.21675984 -145.91406941 34.20278788 C-140.46749291 34.19027519 -135.02091422 34.18910959 -129.57432556 34.18673706 C-119.26495021 34.18052388 -108.95561734 34.16411523 -98.64626068 34.14403808 C-86.90751264 34.12167406 -75.16876256 34.11068438 -63.42999852 34.10064721 C-39.28664214 34.07974889 -15.14332345 34.04457603 9 34 C8.26773193 33.29915283 7.53546387 32.59830566 6.78100586 31.8762207 C4.06928564 29.27306527 1.37744408 26.65012921 -1.30883789 24.02075195 C-2.47440318 22.88536837 -3.64529541 21.75542686 -4.8215332 20.63110352 C-6.51121058 19.01417712 -8.18078013 17.37866285 -9.84765625 15.73828125 C-10.37778824 15.23911697 -10.90792023 14.7399527 -11.45411682 14.22566223 C-12.91040039 12.77075195 -12.91040039 12.77075195 -15 10 C-14.97397172 6.08185238 -14.12665597 5.13901264 -11.4375 2.1875 C-7.8765161 -0.5109914 -4.32101125 -1.15174013 0 0 Z " fill="#0A0A0A" transform="translate(353,632)"/>
</svg>
