<svg version="1.2" xmlns="http://www.w3.org/2000/svg" viewBox="0 0 240 64" width="240" height="64">
	<title>light_1</title>
	<style>
		tspan { white-space:pre } 
		.s0 { fill: #ffffff } 
		.s1 { fill: none;stroke: #caf8dd;stroke-width: 3 } 
		.s2 { fill: #16a34a } 
		.s3 { fill: #0f172a } 
		.t4 { font-size: 22px;fill: #15803d;font-family: "system" } 
	</style>
	<path fill-rule="evenodd" class="s0" d="m20 4h24c8.8 0 16 7.2 16 16v24c0 8.8-7.2 16-16 16h-24c-8.8 0-16-7.2-16-16v-24c0-8.8 7.2-16 16-16z"/>
	<path fill-rule="evenodd" class="s1" d="m20 6.5h24c7.5 0 13.5 6 13.5 13.5v24c0 7.5-6 13.5-13.5 13.5h-24c-7.5 0-13.5-6-13.5-13.5v-24c0-7.5 6-13.5 13.5-13.5z"/>
	<path class="s2" d="m32 14l20 36h-8.5l-4.9-9.6h-13.2l-4.9 9.6h-8.5z"/>
	<path class="s3" d="m32 24l7 15h-14z"/>
	<text id="
    Arcade
  " style="transform: matrix(1.917,0,0,1.917,43.666,-6.334)" >
		<tspan x="0" y="26.4" class="t4">    Arcade
</tspan>
		<tspan x="0" y="52.8" class="t4">  
</tspan>
	</text>
</svg>