<?xml version="1.0" encoding="UTF-8"?>
<svg xmlns="http://www.w3.org/2000/svg" viewBox="105 541 1055 189" role="img" aria-label="Arcentra">
<path d="M0 0 C1.02537872 -0.00832352 2.05075745 -0.01664703 3.10720825 -0.02522278 C6.48532958 -0.04924837 9.86325746 -0.05808657 13.24145508 -0.06469727 C15.60166987 -0.07367031 17.96188411 -0.08279227 20.32209778 -0.09205627 C25.2673175 -0.10852939 30.21246966 -0.11624316 35.15771484 -0.11914062 C41.47121481 -0.12451787 47.78407302 -0.16217904 54.09739208 -0.20788479 C58.97296931 -0.23773961 63.84839368 -0.24486605 68.72405434 -0.24586678 C71.05030565 -0.25005348 73.37655808 -0.2624249 75.70271873 -0.28338432 C93.12334613 -0.42783818 105.62746142 0.84328444 118.69848633 13.33764648 C123.64400697 18.50135186 126.40612548 23.52267949 128.57348633 30.30639648 C128.90348633 31.29639648 129.23348633 32.28639648 129.57348633 33.30639648 C131.18301191 47.02884653 127.61422668 57.02228641 119.55395508 68.07592773 C113.01757713 75.43741059 102.65377235 80.60194359 92.8874588 81.57364273 C86.1757802 81.91913928 79.46308914 81.85645406 72.74502945 81.7757206 C68.89396865 81.73146139 65.04414173 81.72144116 61.19284058 81.72050476 C50.94570903 81.7123171 40.69910336 81.65320702 30.45233905 81.56757087 C23.04681762 81.50596952 15.64256028 81.48090314 8.23672104 81.48988914 C5.68579334 81.48477032 3.13484798 81.46433546 0.5841713 81.42818642 C-2.9774297 81.37793847 -6.53602769 81.37656099 -10.09790039 81.38574219 C-11.14634628 81.35847549 -12.19479218 81.3312088 -13.27500916 81.30311584 C-18.86266752 81.35703689 -18.86266752 81.35703689 -23.57312393 84.07884789 C-25.45451686 86.18704303 -25.45451686 86.18704303 -26.99446297 88.39345074 C-29.28353084 91.45120745 -31.78783965 92.63018273 -35.42651367 93.30639648 C-42.19406326 94.09825693 -48.49228675 94.48501322 -54.48901367 90.86889648 C-59.9882546 86.44693223 -62.97753585 81.87817542 -63.86401367 74.82592773 C-64.03830581 69.6570766 -63.98684166 65.56153117 -61.86401367 60.80639648 C-55.99411094 54.78598343 -51.07520931 50.09078027 -42.23901367 49.86889648 C-35.42506955 50.00683058 -29.72861582 52.26459518 -24.69213867 56.90405273 C-21.42651367 60.63750603 -21.42651367 60.63750603 -21.42651367 63.30639648 C-6.71804835 63.26915588 7.99017946 63.20918691 22.6984396 63.12249374 C29.52845569 63.0827607 36.35835752 63.05033927 43.18847656 63.03540039 C49.78275215 63.02095649 56.37670957 62.98577975 62.97084236 62.93808746 C65.48372375 62.92327661 67.99665572 62.91535564 70.50958061 62.91451263 C74.03574039 62.91214049 77.56092322 62.88503824 81.08691406 62.85229492 C82.12054077 62.85732529 83.15416748 62.86235565 84.21911621 62.86753845 C92.14502332 62.75404186 98.11293019 60.93942833 104.44848633 56.11889648 C108.60073066 50.62327899 110.19657579 44.36749493 109.92114258 37.50561523 C109.06030955 32.0601209 106.6111468 28.34405695 102.76098633 24.49389648 C95.73161453 19.6698178 90.42742447 18.86782069 82.06762695 18.93408203 C81.03421677 18.93043137 80.00080658 18.9267807 78.93608093 18.92301941 C75.5337968 18.91494019 72.13199286 18.92850261 68.72973633 18.94311523 C66.35754395 18.94363415 63.98535113 18.94311522 61.61315918 18.94160461 C56.64690716 18.94169422 51.68081786 18.95210023 46.71459961 18.97021484 C40.35597152 18.99290134 33.99758107 18.99344475 27.63892365 18.9866972 C22.74210507 18.98335213 17.84534044 18.98999749 12.9485321 18.99982643 C10.60422549 19.00366942 8.25991286 19.00483039 5.91560364 19.00324059 C2.63673514 19.0028688 -0.64183128 19.01552222 -3.9206543 19.03173828 C-4.88501907 19.02926086 -5.84938385 19.02678345 -6.8429718 19.02423096 C-12.09291222 19.06556676 -16.45647789 19.58847171 -21.42651367 21.30639648 C-21.53505351 19.07831489 -21.61234675 16.84869717 -21.67651367 14.61889648 C-21.72291992 13.3775293 -21.76932617 12.13616211 -21.81713867 10.85717773 C-21.35122782 6.62204807 -20.58736146 5.13586507 -17.42651367 2.30639648 C-11.59858242 0.1375199 -6.17392718 0.00429023 0 0 Z " fill="#050505" transform="translate(177.426513671875,549.693603515625)"/>
<path d="M0 0 C0.91644287 0.00523682 1.83288574 0.01047363 2.77709961 0.01586914 C4.26113281 0.02070312 4.26113281 0.02070312 5.77514648 0.02563477 C6.81606445 0.03401367 7.85698242 0.04239258 8.92944336 0.05102539 C10.49662109 0.05779297 10.49662109 0.05779297 12.09545898 0.06469727 C14.68600996 0.07652627 17.27644895 0.0930085 19.86694336 0.11352539 C23.24529266 6.66598128 26.20993985 13.23935617 28.86694336 20.11352539 C31.92846868 27.93742343 34.99911527 35.64461598 38.86694336 43.11352539 C39.89562337 45.43923672 40.89243546 47.76564123 41.86694336 50.11352539 C42.42188477 51.42450195 42.42188477 51.42450195 42.98803711 52.76196289 C45.2347319 58.09523837 47.38772412 63.44825774 49.42944336 68.86352539 C51.03758845 73.08805701 52.74071525 77.15216139 54.87475586 81.13696289 C55.97962757 83.33800653 56.94786121 85.58499636 57.90795898 87.85229492 C59.11554074 90.69970384 60.34210517 93.53878571 61.56616211 96.37915039 C62.56255532 98.70714724 63.55864118 101.03527566 64.55444336 103.36352539 C65.06555664 104.54688477 65.57666992 105.73024414 66.10327148 106.94946289 C66.58602539 108.08125977 67.0687793 109.21305664 67.56616211 110.37915039 C68.00790771 111.40814453 68.44965332 112.43713867 68.90478516 113.49731445 C69.86694336 116.11352539 69.86694336 116.11352539 69.86694336 119.11352539 C62.93694336 119.11352539 56.00694336 119.11352539 48.86694336 119.11352539 C43.96498417 109.30960701 40.78523367 100.8139232 37.86694336 90.11352539 C18.72694336 90.11352539 -0.41305664 90.11352539 -20.13305664 90.11352539 C-21.12305664 93.41352539 -22.11305664 96.71352539 -23.13305664 100.11352539 C-24.14293984 102.76132859 -25.1661568 105.37674486 -26.25805664 107.98852539 C-27.78861823 111.67680552 -29.16043288 115.22303034 -30.13305664 119.11352539 C-37.39305664 119.11352539 -44.65305664 119.11352539 -52.13305664 119.11352539 C-50.12774395 113.09758732 -48.06412131 107.29897631 -45.60571289 101.48071289 C-45.09413383 100.25930099 -45.09413383 100.25930099 -44.57221985 99.01321411 C-43.45003209 96.33689017 -42.32292597 93.66267034 -41.19555664 90.98852539 C-40.40128741 89.09796809 -39.60718261 87.2073417 -38.81323242 85.31665039 C-31.93827827 68.96161491 -24.99666281 52.63472593 -18.03564453 36.31616211 C-17.63916214 35.38657684 -17.24267975 34.45699158 -16.83418274 33.49923706 C-16.05868612 31.68133496 -15.28288622 29.8635622 -14.50675964 28.04592896 C-12.59127118 23.55518099 -10.6882919 19.05966646 -8.8059082 14.55493164 C-8.43591705 13.67047363 -8.0659259 12.78601563 -7.6847229 11.87475586 C-6.98360111 10.1963146 -6.28458565 8.51699145 -5.58798218 6.83666992 C-2.79414247 0.14870965 -2.79414247 0.14870965 0 0 Z " fill="#080808" transform="translate(491.133056640625,559.886474609375)"/>
<path d="M0 0 C8.38033606 4.95151677 14.95784884 12.39486816 21.83349609 19.18823242 C23.52884687 20.85540878 25.23399526 22.51267975 26.94873047 24.15991211 C29.43340531 26.54719074 31.8870702 28.96278602 34.3359375 31.38671875 C35.48888809 32.47940315 35.48888809 32.47940315 36.66513062 33.59416199 C39.98715228 36.94353923 42.49233538 39.65099963 42.98974609 44.46826172 C42.40045654 50.56463664 38.05838826 54.09844071 33.828125 58.12109375 C32.99416199 58.94706558 32.16019897 59.77303741 31.30096436 60.6240387 C28.63769756 63.25028199 25.9442443 65.84308707 23.25 68.4375 C21.45118087 70.20831375 19.65428243 71.98108083 17.859375 73.75585938 C16.14231112 75.44182311 14.42361508 77.12612652 12.703125 78.80859375 C11.89256653 79.6012413 11.08200806 80.39388885 10.24688721 81.21055603 C9.10615753 82.30793846 9.10615753 82.30793846 7.94238281 83.42749023 C7.27619934 84.07096909 6.61001587 84.71444794 5.92364502 85.37742615 C2.07557696 88.6232301 -0.93933725 89.38521663 -6.03125 89.26171875 C-8.88928073 88.88178212 -10.75817216 87.7662886 -13 86 C-14.44929112 83.10141775 -14.37616754 81.21935093 -14 78 C-12.37178265 75.84649051 -10.90927016 74.20388556 -8.96875 72.3828125 C-8.45824097 71.88079315 -7.94773193 71.3787738 -7.42175293 70.86154175 C-5.79474941 69.26801195 -4.14811878 67.69665222 -2.5 66.125 C-1.39056346 65.04567073 -0.28247361 63.96495534 0.82421875 62.8828125 C3.53413951 60.2388952 6.26185458 57.61466291 9 55 C8.02301147 54.99761165 7.04602295 54.99522329 6.03942871 54.99276257 C-17.7389269 54.93395357 -41.5171813 54.85806201 -65.29542542 54.76428509 C-76.79443444 54.71933015 -88.29341252 54.67991472 -99.79248047 54.65356445 C-109.81571141 54.630582 -119.83884437 54.59718109 -129.8619976 54.55129844 C-135.1685926 54.52736968 -140.47509058 54.50863858 -145.78173828 54.50238609 C-150.77875984 54.49633375 -155.7755332 54.47632819 -160.77246284 54.44572449 C-162.6041752 54.43694672 -164.43591998 54.43322114 -166.26765251 54.43499184 C-168.77434195 54.43664959 -171.28027923 54.41990303 -173.78686523 54.39872742 C-174.86666782 54.40599878 -174.86666782 54.40599878 -175.96828461 54.41341704 C-181.82581414 54.33210856 -187.39478868 53.12239224 -192.0234375 49.3515625 C-197.14042534 42.81483237 -198.32422169 38.26765307 -198 30 C-196.9790625 30.433125 -196.9790625 30.433125 -195.9375 30.875 C-189.80504367 33.2236003 -184.30920709 34.29222089 -177.75526428 34.24050903 C-176.9529906 34.24221788 -176.15071691 34.24392673 -175.32413191 34.24568737 C-172.65097265 34.24896686 -169.97806755 34.23800411 -167.30493164 34.22705078 C-165.38274135 34.22648633 -163.46055063 34.22680388 -161.5383606 34.22793579 C-156.33022561 34.22850899 -151.12218297 34.21675984 -145.91406941 34.20278788 C-140.46749291 34.19027519 -135.02091422 34.18910959 -129.57432556 34.18673706 C-119.26495021 34.18052388 -108.95561734 34.16411523 -98.64626068 34.14403808 C-86.90751264 34.12167406 -75.16876256 34.11068438 -63.42999852 34.10064721 C-39.28664214 34.07974889 -15.14332345 34.04457603 9 34 C8.26773193 33.29915283 7.53546387 32.59830566 6.78100586 31.8762207 C4.06928564 29.27306527 1.37744408 26.65012921 -1.30883789 24.02075195 C-2.47440318 22.88536837 -3.64529541 21.75542686 -4.8215332 20.63110352 C-6.51121058 19.01417712 -8.18078013 17.37866285 -9.84765625 15.73828125 C-10.37778824 15.23911697 -10.90792023 14.7399527 -11.45411682 14.22566223 C-12.91040039 12.77075195 -12.91040039 12.77075195 -15 10 C-14.97397172 6.08185238 -14.12665597 5.13901264 -11.4375 2.1875 C-7.8765161 -0.5109914 -4.32101125 -1.15174013 0 0 Z " fill="#0A0A0A" transform="translate(353,632)"/>
<path d="M0 0 C8.00353535 6.64158921 12.28021345 14.27814036 15.5625 24.125 C15.5625 30.725 15.5625 37.325 15.5625 44.125 C-7.5375 44.125 -30.6375 44.125 -54.4375 44.125 C-49.55403377 55.84531896 -47.75933793 59.77293589 -37.4375 65.125 C-27.94383287 68.28955571 -16.83131337 66.7187079 -7.953125 62.609375 C-5.31567635 61.15487481 -5.31567635 61.15487481 -2.859375 58.890625 C-0.4375 57.125 -0.4375 57.125 1.609375 57.08984375 C4.29314039 58.51223941 5.85718572 60.37371144 7.8125 62.6875 C8.51890625 63.51378906 9.2253125 64.34007812 9.953125 65.19140625 C10.48421875 65.82949219 11.0153125 66.46757813 11.5625 67.125 C8.61193241 74.0047154 1.6907816 77.33782152 -4.87109375 80.265625 C-19.26985693 85.08712865 -37.60638502 85.40463201 -51.39453125 78.68359375 C-60.4753368 73.32952099 -67.57331533 66.01501721 -71.4375 56.125 C-71.79199219 55.31675781 -72.14648438 54.50851562 -72.51171875 53.67578125 C-73.9127782 48.30209754 -73.84674703 43.03130328 -73.875 37.5 C-73.90787109 36.38753906 -73.94074219 35.27507813 -73.97460938 34.12890625 C-74.05220487 22.009901 -70.1584199 12.98353333 -61.76953125 4.31640625 C-45.10049953 -11.34745772 -18.93385616 -13.16522335 0 0 Z " fill="#080707" transform="translate(802.4375,596.875)"/>
<path d="M0 0 C4.79721011 3.95495185 8.71915717 9.14449311 9.375 15.375 C9.189375 16.5815625 9.189375 16.5815625 9 17.8125 C9.66 17.8125 10.32 17.8125 11 17.8125 C11.09264072 25.97480905 11.16373412 34.13689882 11.20724869 42.29960346 C11.22813259 46.08981698 11.25646381 49.87967109 11.30175781 53.66967773 C11.34518858 57.32662174 11.36913106 60.98321986 11.37950897 64.64040184 C11.38690548 66.0363122 11.40134928 67.43220341 11.42292023 68.82796669 C11.45191117 70.78136389 11.45363352 72.73510844 11.45410156 74.6887207 C11.46298401 75.8012471 11.47186646 76.9137735 11.48101807 78.06001282 C11 80.8125 11 80.8125 9.12205505 82.6638031 C1.37187451 86.85907991 -11.28192448 85.0301533 -20.03491211 85.05273438 C-22.29903907 85.06244228 -24.5622561 85.0935874 -26.82617188 85.125 C-38.97567548 85.21443964 -52.70544903 85.26162148 -62.26171875 76.78515625 C-68.08108075 70.18116117 -69.43160401 62.83303968 -69.3359375 54.2421875 C-68.73466533 48.10361812 -66.53216616 43.31288165 -62.1328125 38.96875 C-51.29837358 30.36865062 -37.49404619 28.36659559 -24 29.8125 C-18.57485776 30.78597019 -13.28312556 32.25741442 -8 33.8125 C-8.17507085 31.24378805 -8.38853554 28.68818557 -8.625 26.125 C-8.67011719 25.40376953 -8.71523437 24.68253906 -8.76171875 23.93945312 C-9.15931195 19.98159357 -9.711048 17.58897664 -12.7734375 14.91796875 C-18.83511502 10.96246731 -23.39291014 10.42618722 -30.5 10.4375 C-31.38623047 10.43693604 -32.27246094 10.43637207 -33.18554688 10.43579102 C-40.76078635 10.56163241 -46.91872787 12.09145562 -54 14.8125 C-55.32741051 15.16868849 -56.65888223 15.51201371 -58 15.8125 C-58.70045456 13.90052961 -59.384919 11.98269565 -60.0625 10.0625 C-60.44535156 8.99515625 -60.82820313 7.9278125 -61.22265625 6.828125 C-62.41279783 2.21109333 -62.41279783 2.21109333 -61 -0.1875 C-57.98046875 -1.63671875 -57.98046875 -1.63671875 -54.1875 -2.875 C-52.94355469 -3.29136719 -51.69960937 -3.70773437 -50.41796875 -4.13671875 C-35.08076524 -8.85181332 -13.958625 -8.6267897 0 0 Z " fill="#080808" transform="translate(1140,595.1875)"/>
<path d="M0 0 C1.155 -0.020625 2.31 -0.04125 3.5 -0.0625 C15.57831855 -0.11702965 26.03907174 2.10643253 35.25 10.25 C43.50833086 19.19317633 44.34250595 29.7782349 44.11328125 41.421875 C44.10392863 42.83960712 44.09682414 44.25735565 44.09184265 45.67510986 C44.07296449 49.36452709 44.02403752 53.05292317 43.96832275 56.74194336 C43.91670903 60.52313431 43.89423981 64.30449406 43.86914062 68.0859375 C43.81589283 75.47447263 43.72812285 82.8619618 43.625 90.25 C37.355 90.25 31.085 90.25 24.625 90.25 C24.61041748 88.46384277 24.59583496 86.67768555 24.58081055 84.83740234 C24.52906994 78.9220368 24.46375991 73.00690381 24.38928509 67.09178734 C24.34464371 63.50701541 24.30537434 59.92235549 24.27856445 56.33740234 C24.25246856 52.87476248 24.21202301 49.41255507 24.16181374 45.95018387 C24.13712068 43.99279832 24.12711639 42.03524523 24.11735535 40.07772827 C24.09756119 38.87693634 24.07776703 37.67614441 24.05737305 36.43896484 C24.04626999 35.38639496 24.03516693 34.33382507 24.02372742 33.24935913 C23.35704277 28.23433738 21.41838264 25.04338264 17.875 21.5 C12.05094114 17.46795925 6.29441394 16.94017008 -0.5625 17.0625 C-1.60954102 17.0634668 -1.60954102 17.0634668 -2.67773438 17.06445312 C-6.14153658 17.09411461 -8.98886822 17.40346705 -12.375 18.25 C-15.345 18.25 -18.315 18.25 -21.375 18.25 C-21.375 42.01 -21.375 65.77 -21.375 90.25 C-27.645 90.25 -33.915 90.25 -40.375 90.25 C-40.44268455 79.33230928 -40.49776322 68.41475712 -40.53043652 57.49690437 C-40.54611533 52.42770744 -40.56739389 47.35866105 -40.60131836 42.28955078 C-40.63383298 37.40069975 -40.6518363 32.51199384 -40.65963173 27.62304306 C-40.66518948 25.75464466 -40.67604192 23.88625451 -40.69219017 22.01791763 C-40.71385972 19.40776441 -40.71697136 16.79821648 -40.71557617 14.18798828 C-40.726362 13.4097168 -40.73714783 12.63144531 -40.7482605 11.82958984 C-40.73576355 9.67947388 -40.73576355 9.67947388 -40.375 6.25 C-36.91818813 3.94545875 -34.31855406 3.47244326 -30.25 2.6875 C-28.98929688 2.43871094 -27.72859375 2.18992187 -26.4296875 1.93359375 C-17.61855718 0.38322937 -8.94116374 0.03965039 0 0 Z " fill="#060606" transform="translate(876.375,588.75)"/>
<path d="M0 0 C4.27872636 2.69685196 8.3169326 5.59181254 11.4609375 9.57421875 C11.25635824 12.29456996 10.60996807 13.41257003 8.75390625 15.42578125 C8.05910156 16.01101563 7.36429688 16.59625 6.6484375 17.19921875 C5.96136719 17.78960938 5.27429688 18.38 4.56640625 18.98828125 C2.59488327 20.47332454 0.70269758 21.55661081 -1.5390625 22.57421875 C-2.2403125 21.83171875 -2.9415625 21.08921875 -3.6640625 20.32421875 C-10.99937174 13.30783599 -17.51209157 11.12611586 -27.50390625 11.32421875 C-34.81369392 11.92631194 -40.40829577 14.21023535 -45.5390625 19.57421875 C-51.66343867 28.85206775 -52.7119392 37.29370927 -51.1484375 48.33203125 C-49.28876993 55.93759479 -44.85981028 61.59466963 -38.4375 66.0234375 C-31.51152857 69.61234997 -24.0173574 69.66463691 -16.5390625 67.84375 C-10.92815381 65.97598828 -6.72263337 63.75778962 -2.5390625 59.57421875 C-2.0440625 58.58421875 -2.0440625 58.58421875 -1.5390625 57.57421875 C2.17138997 59.15202798 4.76000134 61.48125123 7.7109375 64.19921875 C8.60296875 65.01648438 9.495 65.83375 10.4140625 66.67578125 C11.08953125 67.30226563 11.765 67.92875 12.4609375 68.57421875 C7.72214247 77.06396333 -0.9900762 82.23296363 -10.20556641 85.06445312 C-15.00239355 86.11234757 -19.83307378 86.16684644 -24.7265625 86.19921875 C-25.72365234 86.21001465 -26.72074219 86.22081055 -27.74804688 86.23193359 C-39.62948736 86.00646071 -50.0486638 81.68904284 -58.69921875 73.5390625 C-67.82110662 63.87156638 -71.95049943 52.894578 -71.8515625 39.69921875 C-71.84592285 38.90837891 -71.8402832 38.11753906 -71.83447266 37.30273438 C-71.57382913 24.74023255 -66.87892864 14.92828968 -58.2890625 5.76171875 C-43.38368632 -8.44104711 -17.6029541 -9.88473576 0 0 Z " fill="#060606" transform="translate(707.5390625,594.42578125)"/>
<path d="M0 0 C6.27 0 12.54 0 19 0 C19 6.93 19 13.86 19 21 C27.91 21 36.82 21 46 21 C46 26.28 46 31.56 46 37 C37.09 37 28.18 37 19 37 C19.05112018 43.56638749 19.11415821 50.13043392 19.20751953 56.69604492 C19.23568072 58.92773838 19.2569193 61.15953068 19.27099609 63.39135742 C19.29249228 66.60646999 19.33917863 69.8204002 19.390625 73.03515625 C19.39185364 74.02709488 19.39308228 75.01903351 19.39434814 76.04103088 C19.52368091 82.20933865 20.38768525 85.95124892 24 91 C27.22206245 93.48112404 30.40163486 93.23844058 34.375 93.1875 C35.47585938 93.18105469 36.57671875 93.17460938 37.7109375 93.16796875 C41.47105114 93.03853126 41.47105114 93.03853126 47 92 C47 97.61 47 103.22 47 109 C36.96586531 112.34471156 24.71773416 112.95654897 14.9765625 108.203125 C7.84493834 103.86213638 3.18394478 98.61283354 0.62411499 90.65164185 C-0.52096668 85.78659851 -0.36499278 80.93787496 -0.29296875 75.96484375 C-0.28872391 74.84557999 -0.28447906 73.72631622 -0.28010559 72.57313538 C-0.26342531 69.02767017 -0.22579232 65.48279098 -0.1875 61.9375 C-0.17243943 59.52149263 -0.15875343 57.10547628 -0.14648438 54.68945312 C-0.11355659 48.79274584 -0.06184778 42.89647199 0 37 C-4.95 37 -9.9 37 -15 37 C-15 31.72 -15 26.44 -15 21 C-10.05 21 -5.1 21 0 21 C0 14.07 0 7.14 0 0 Z " fill="#090808" transform="translate(947,569)"/>
<path d="M0 0 C1 1 1 1 1.09765625 4.81640625 C1.09098089 6.39846682 1.07901875 7.98051159 1.0625 9.5625 C1.05798828 10.36880859 1.05347656 11.17511719 1.04882812 12.00585938 C1.03700518 14.00393756 1.01906914 16.00197783 1 18 C0.0203125 17.84144531 -0.959375 17.68289063 -1.96875 17.51953125 C-6.14966092 16.92751595 -10.28115177 16.74410351 -14.5 16.6875 C-15.22058594 16.65849609 -15.94117188 16.62949219 -16.68359375 16.59960938 C-22.2530028 16.53414616 -25.3970104 17.85947925 -30 21 C-33.95385105 25.21744112 -34.12282382 29.35201998 -34.20532227 34.96191406 C-34.22526749 36.16285706 -34.24521271 37.36380005 -34.26576233 38.60113525 C-34.29083107 40.53880768 -34.29083107 40.53880768 -34.31640625 42.515625 C-34.33698963 43.85512921 -34.35798646 45.19462713 -34.37937927 46.53411865 C-34.43445709 50.05215341 -34.48392906 53.5702454 -34.53222656 57.08837891 C-34.58254625 60.68136664 -34.63817756 64.27427173 -34.69335938 67.8671875 C-34.80076602 74.91138797 -34.90175838 81.95566488 -35 89 C-41.27 89 -47.54 89 -54 89 C-54.09066794 80.55009633 -54.163926 72.10057612 -54.20724869 63.65031528 C-54.22805011 59.72575754 -54.25622951 55.80155223 -54.30175781 51.87719727 C-54.34548418 48.0840659 -54.36919299 44.29127176 -54.37950897 40.49790764 C-54.38685268 39.0567183 -54.40119244 37.61554568 -54.42292023 36.17450142 C-54.59117118 24.54435055 -52.9486466 16.35899659 -44.83984375 7.71875 C-33.2665349 -3.09283364 -14.69030478 -2.66404491 0 0 Z " fill="#060606" transform="translate(628,590)"/>
<path d="M0 0 C1.41140017 -0.0278609 2.82286606 -0.05255794 4.234375 -0.07421875 C5.23162598 -0.09427979 5.23162598 -0.09427979 6.24902344 -0.11474609 C11.44467545 -0.12113524 14.93038767 0.78728442 20.234375 2.11328125 C20.234375 7.72328125 20.234375 13.33328125 20.234375 19.11328125 C18.254375 18.78328125 16.274375 18.45328125 14.234375 18.11328125 C11.25568156 17.87604597 8.28415355 17.83796729 5.296875 17.80078125 C4.13768555 17.75727539 4.13768555 17.75727539 2.95507812 17.71289062 C-2.78392514 17.64982466 -6.05607389 18.80272612 -10.765625 22.11328125 C-12.66504624 24.60880262 -12.66504624 24.60880262 -13.765625 27.11328125 C-14.095625 27.77328125 -14.425625 28.43328125 -14.765625 29.11328125 C-14.88568047 31.05299503 -14.94295844 32.99671741 -14.97094727 34.93994141 C-14.99089249 36.16105621 -15.01083771 37.38217102 -15.03138733 38.64028931 C-15.04837156 39.97763948 -15.06525037 41.314991 -15.08203125 42.65234375 C-15.10260103 44.01712678 -15.12359751 45.38190343 -15.14500427 46.74667358 C-15.20022259 50.34036098 -15.24963287 53.93410585 -15.29785156 57.52789307 C-15.34806837 61.19442871 -15.40375349 64.86088081 -15.45898438 68.52734375 C-15.56656303 75.7225875 -15.66750331 82.91790118 -15.765625 90.11328125 C-22.035625 90.11328125 -28.305625 90.11328125 -34.765625 90.11328125 C-34.85642952 81.9586857 -34.92962847 73.80449116 -34.97287369 65.64952374 C-34.99364184 61.86177797 -35.02175853 58.07439962 -35.06738281 54.28686523 C-35.11123032 50.62340052 -35.13484283 46.96028648 -35.14513397 43.29657936 C-35.15245635 41.90728049 -35.16675287 40.51799818 -35.18854523 39.12885094 C-35.35965841 27.75649899 -34.11363549 17.43547608 -25.94921875 8.90234375 C-18.06471657 2.44241173 -9.9131339 0.29821668 0 0 Z " fill="#070707" transform="translate(1043.765625,588.88671875)"/>
<path d="M0 0 C0.66 0 1.32 0 2 0 C2.391875 1.2375 2.78375 2.475 3.1875 3.75 C4.8059783 8.61306922 6.74593551 13.30664642 8.74609375 18.0234375 C9.869375 20.68991821 10.94393468 23.3688921 12 26.0625 C14.1442463 31.46218096 16.57517469 36.72196358 19 42 C22 48.53571429 22 48.53571429 22 52 C8.14 52 -5.72 52 -20 52 C-18.04780038 45.49266792 -16.07048385 39.34110457 -13.49609375 33.10546875 C-13.17214127 32.31022293 -12.84818878 31.51497711 -12.51441956 30.69563293 C-11.49308246 28.19113822 -10.46545502 25.68928463 -9.4375 23.1875 C-8.74501565 21.493013 -8.05295501 19.79835279 -7.36132812 18.10351562 C-6.09564955 15.00306422 -4.82735498 11.90371036 -3.55639648 8.80541992 C-2.35587035 5.87619362 -1.16942029 2.94181726 0 0 Z " fill="#F4F4F4" transform="translate(499,581)"/>
<path d="M0 0 C1.05058594 -0.01160156 2.10117188 -0.02320313 3.18359375 -0.03515625 C4.21355469 -0.03128906 5.24351563 -0.02742187 6.3046875 -0.0234375 C7.23007324 -0.02005371 8.15545898 -0.01666992 9.10888672 -0.01318359 C12.125 0.375 12.125 0.375 20.125 3.375 C20.125 10.635 20.125 17.895 20.125 25.375 C15.69482169 25.467242 11.26802293 25.54674241 6.83764648 25.59472656 C5.33329938 25.61474363 3.82902911 25.64196627 2.32495117 25.67675781 C0.15263838 25.72571945 -2.01863906 25.74806653 -4.19140625 25.765625 C-5.49537354 25.78657227 -6.79934082 25.80751953 -8.14282227 25.82910156 C-13.457929 25.18240185 -17.25229212 23.25943496 -20.8125 19.125 C-22.2414573 15.42652229 -22.58116047 12.28665296 -21.875 8.375 C-16.90259721 -0.23108176 -8.92320818 -0.09781836 0 0 Z " fill="#F8F8F8" transform="translate(1111.875,639.625)"/>
<path d="M0 0 C5.83818761 3.15792875 10.18053365 7.85096263 12.828125 13.95703125 C13.323125 17.42203125 13.323125 17.42203125 13.828125 20.95703125 C-3.331875 20.95703125 -20.491875 20.95703125 -38.171875 20.95703125 C-37.01169156 12.83574717 -35.03715907 8.66284387 -29.18359375 3.05078125 C-21.00745898 -2.93657824 -9.42236384 -3.09824033 0 0 Z " fill="#F8F8F8" transform="translate(786.171875,606.04296875)"/>
<path d="M0 0 C62.7 0 125.4 0 190 0 C188.68 1.32 187.36 2.64 186 4 C185.67 3.01 185.34 2.02 185 1 C123.95 1 62.9 1 0 1 C0 0.67 0 0.34 0 0 Z " fill="#EAEBEB" transform="translate(173,686)"/>
<path d="M0 0 C0.66 0.33 1.32 0.66 2 1 C-0.84437934 3.8498388 -3.69668138 6.69120197 -6.55859375 9.5234375 C-7.85160886 10.80724498 -9.14457668 12.09110008 -10.4375 13.375 C-11.08009766 14.00921875 -11.72269531 14.6434375 -12.38476562 15.296875 C-16.0636158 18.95705081 -19.51179204 22.68530736 -22.75805664 26.73681641 C-23.3728186 27.36209229 -23.3728186 27.36209229 -24 28 C-24.66 28 -25.32 28 -26 28 C-26.309375 28.8353125 -26.309375 28.8353125 -26.625 29.6875 C-28.55000774 32.92501302 -31.03850902 34.68231141 -34 37 C-34 34 -34 34 -32.70922852 32.34846497 C-32.10522217 31.75112045 -31.50121582 31.15377594 -30.87890625 30.53833008 C-30.19820068 29.8578511 -29.51749512 29.17737213 -28.81616211 28.47627258 C-28.07245361 27.74804794 -27.32874512 27.0198233 -26.5625 26.26953125 C-25.80783447 25.51911057 -25.05316895 24.76868988 -24.27563477 23.99552917 C-21.85735329 21.59407604 -19.42886229 19.20324651 -17 16.8125 C-15.36129742 15.18883881 -13.7232676 13.56449833 -12.0859375 11.93945312 C-8.06507255 7.95171262 -4.03577035 3.97265181 0 0 Z " fill="#EBEAEB" transform="translate(393,682)"/>
<path d="M0 0 C1.32 0.33 2.64 0.66 4 1 C3.34 1.66 2.68 2.32 2 3 C1.66697064 5.99509062 1.66697064 5.99509062 1.68115234 9.56103516 C1.66608391 10.57096779 1.66608391 10.57096779 1.65071106 11.6013031 C1.61977818 13.83054741 1.60281632 16.05967109 1.5859375 18.2890625 C1.56723393 19.83321172 1.54766113 21.37735065 1.5272522 22.92147827 C1.4758391 26.98862645 1.43626273 31.0558078 1.39910889 35.12310791 C1.35912657 39.2722602 1.30800798 43.42127342 1.2578125 47.5703125 C1.16094463 55.71344681 1.07657486 63.85664971 1 72 C0.67 72 0.34 72 0 72 C0 48.24 0 24.48 0 0 Z " fill="#DEDEDF" transform="translate(855,607)"/>
<path d="M0 0 C0.33 0 0.66 0 1 0 C1.495 3.465 1.495 3.465 2 7 C-15.16 7 -32.32 7 -50 7 C-50 5.35 -50 3.7 -50 2 C-49.67 3.32 -49.34 4.64 -49 6 C-33.49 5.67 -17.98 5.34 -2 5 C-1.34 3.35 -0.68 1.7 0 0 Z " fill="#BCBCBE" transform="translate(798,620)"/>
<path d="M0 0 C0.66 0 1.32 0 2 0 C3.00496852 3.01490557 3.10335303 5.04181692 3.0625 8.1875 C3.05347656 9.08855469 3.04445313 9.98960937 3.03515625 10.91796875 C3.02355469 11.60503906 3.01195312 12.29210937 3 13 C0.03 12.505 0.03 12.505 -3 12 C-2.01 11.67 -1.02 11.34 0 11 C0 7.37 0 3.74 0 0 Z " fill="#E6E6E6" transform="translate(1129,616)"/>
<path d="M0 0 C8.91 0 17.82 0 27 0 C24 3 24 3 21.67163086 3.28051758 C20.77839111 3.23564209 19.88515137 3.1907666 18.96484375 3.14453125 C17.99095703 3.09876953 17.01707031 3.05300781 16.01367188 3.00585938 C14.99853516 2.94205078 13.98339844 2.87824219 12.9375 2.8125 C11.91849609 2.76802734 10.89949219 2.72355469 9.84960938 2.67773438 C2.27092634 2.27092634 2.27092634 2.27092634 0 0 Z " fill="#AFAFB0" transform="translate(763,679)"/>
<path d="M0 0 C0.33 0 0.66 0 1 0 C1.33 2.31 1.66 4.62 2 7 C-4.6 7 -11.2 7 -18 7 C-18 6.67 -18 6.34 -18 6 C-10.08 5.505 -10.08 5.505 -2 5 C-1.34 3.35 -0.68 1.7 0 0 Z " fill="#C2C2C4" transform="translate(798,620)"/>
<path d="M0 0 C-1.5830577 4.2742558 -4.50568404 6.26531794 -8 9 C-8.66 8.67 -9.32 8.34 -10 8 C-8.71451591 6.66070495 -7.42141845 5.32871357 -6.125 4 C-5.04605469 2.88625 -5.04605469 2.88625 -3.9453125 1.75 C-2 0 -2 0 0 0 Z " fill="#131314" transform="translate(747,597)"/>
<path d="M0 0 C-1.1875 1.5 -1.1875 1.5 -3 3 C-5.6875 3.1875 -5.6875 3.1875 -8 3 C-8.33 2.01 -8.66 1.02 -9 0 C-5.62182575 -0.84454356 -3.32534757 -1.10844919 0 0 Z " fill="#1B1C1C" transform="translate(767,590)"/>
<path d="M0 0 C0.99 0 1.98 0 3 0 C3 1.98 3 3.96 3 6 C0.69 5.67 -1.62 5.34 -4 5 C-3.525625 4.54625 -3.05125 4.0925 -2.5625 3.625 C-0.90972192 2.06741796 -0.90972192 2.06741796 0 0 Z " fill="#302F30" transform="translate(626,602)"/>
<path d="M0 0 C2.475 0.99 2.475 0.99 5 2 C4.319375 2.61875 4.319375 2.61875 3.625 3.25 C1.67082177 5.19019186 1.67082177 5.19019186 0 9 C0 6.03 0 3.06 0 0 Z " fill="#4A4B4B" transform="translate(155,662)"/>
<path d="M0 0 C0.66 0.33 1.32 0.66 2 1 C1.1875 4.4375 1.1875 4.4375 0 8 C-0.99 8.33 -1.98 8.66 -3 9 C-2.01 6.03 -1.02 3.06 0 0 Z " fill="#D0D0D1" transform="translate(488,608)"/>
<path d="M0 0 C0.66 0.99 1.32 1.98 2 3 C0.35 5.31 -1.3 7.62 -3 10 C-3.66 9.67 -4.32 9.34 -5 9 C-3.35 6.03 -1.7 3.06 0 0 Z " fill="#C3C2C3" transform="translate(303,606)"/>
<path d="M0 0 C0.33 0 0.66 0 1 0 C1 2.97 1 5.94 1 9 C0.01 9.33 -0.98 9.66 -2 10 C-1.54177532 6.53058454 -1.10868317 3.32604951 0 0 Z " fill="#E9E9E9" transform="translate(287,585)"/>
</svg>
